<?xml version="1.0" encoding="utf-8"?>
<!-- Generator: Adobe Illustrator 19.1.0, SVG Export Plug-In . SVG Version: 6.00 Build 0)  -->
<svg version="1.1" id="Layer_1" xmlns="http://www.w3.org/2000/svg" xmlns:xlink="http://www.w3.org/1999/xlink" x="0px" y="0px"
	 viewBox="0 0 100 100" style="enable-background:new 0 0 100 100;" xml:space="preserve">
<style type="text/css">
	.st0{fill:#FFF200;stroke:#000000;stroke-miterlimit:10;}
</style>
<path class="st0" d="M81.5,30h-63c-3.8,0-7-3.1-7-7v0c0-3.8,3.1-7,7-7h63c3.8,0,7,3.1,7,7v0C88.5,26.9,85.4,30,81.5,30z"/>
<path class="st0" d="M78.2,57H22.3c-3.8,0-7-3.1-7-7v0c0-3.8,3.1-7,7-7h55.9c3.8,0,7,3.1,7,7v0C85.2,53.9,82.1,57,78.2,57z"/>
<path class="st0" d="M82,82.5H19c-3.8,0-7-3.1-7-7v0c0-3.8,3.1-7,7-7h63c3.8,0,7,3.1,7,7v0C89,79.4,85.9,82.5,82,82.5z"/>
</svg>
