<?xml version="1.0" encoding="utf-8"?>
<!-- Generator: Adobe Illustrator 19.1.0, SVG Export Plug-In . SVG Version: 6.00 Build 0)  -->
<svg version="1.1" id="Layer_1" xmlns="http://www.w3.org/2000/svg" xmlns:xlink="http://www.w3.org/1999/xlink" x="0px" y="0px"
	 viewBox="0 0 120 120" style="enable-background:new 0 0 120 120;" xml:space="preserve">
<style type="text/css">
	.st0{fill:#9C72B2;stroke:#9C72B2;}
	.st1{fill:#FFFFFF;}
</style>
<circle class="st0" cx="60" cy="60" r="59.5"/>
<path class="st1" d="M99.7,35.4c-2.2,3.3-4.9,6.1-8.1,8.4c0,0.6,0,1.3,0,2.1c0,4.3-0.6,8.7-1.9,13.1c-1.3,4.4-3.2,8.5-5.8,12.5
	c-2.6,4-5.7,7.5-9.3,10.6c-3.6,3.1-7.9,5.5-13,7.4c-5.1,1.8-10.5,2.7-16.3,2.7c-9,0-17.3-2.4-24.9-7.3c1.3,0.2,2.6,0.2,3.9,0.2
	c7.5,0,14.3-2.3,20.2-7c-3.5-0.1-6.7-1.1-9.4-3.2c-2.8-2.1-4.7-4.8-5.7-8.1c1,0.2,2.1,0.3,3.1,0.3c1.5,0,2.9-0.2,4.3-0.6
	c-3.8-0.8-6.9-2.6-9.3-5.6c-2.5-3-3.7-6.4-3.7-10.3v-0.2c2.3,1.3,4.8,2,7.4,2c-2.2-1.5-4-3.4-5.3-5.8c-1.3-2.4-2-5-2-7.7
	c0-2.9,0.7-5.7,2.2-8.2c4.1,5,9,9,14.8,12c5.8,3,12,4.7,18.7,5c-0.3-1.2-0.4-2.4-0.4-3.7c0-4.5,1.6-8.3,4.8-11.5
	c3.2-3.2,7-4.8,11.5-4.8c4.7,0,8.7,1.7,11.9,5.1c3.7-0.7,7.1-2,10.3-4c-1.2,3.9-3.6,6.9-7.1,9C93.5,37.6,96.7,36.7,99.7,35.4
	L99.7,35.4z"/>
</svg>
