<?xml version="1.0" encoding="utf-8"?>
<!-- Generator: Adobe Illustrator 19.1.0, SVG Export Plug-In . SVG Version: 6.00 Build 0)  -->
<svg version="1.1" id="Layer_1" xmlns="http://www.w3.org/2000/svg" xmlns:xlink="http://www.w3.org/1999/xlink" x="0px" y="0px"
	 viewBox="0 0 120 120" style="enable-background:new 0 0 120 120;" xml:space="preserve">
<style type="text/css">
	.st0{fill:#9C72B2;}
	.st1{fill:none;}
	.st2{fill:#FFFFFF;}
</style>
<circle class="st0" cx="60" cy="60" r="60"/>
<line class="st1" x1="-16" y1="4" x2="-17" y2="4"/>
<path class="st2" d="M24.6,49.9c0-3.9,0.8-7.7,2.4-11.5c1.6-3.8,3.9-7.3,7-10.5S41.1,22,46,20s10.4-3,16.4-3c9.7,0,17.7,3,23.9,9
	c6.2,6,9.4,13.1,9.4,21.2c0,10.5-2.6,19.1-7.9,25.9c-5.3,6.8-12.1,10.2-20.5,10.2c-2.8,0-5.3-0.6-7.8-1.9c-2.4-1.3-4.1-2.8-5.1-4.7
	l-3.7,14.5c-0.3,1.2-0.7,2.3-1.2,3.5c-0.5,1.2-1,2.3-1.6,3.4c-0.6,1.1-1.2,2.1-1.7,3.1c-0.6,1-1.2,1.9-1.7,2.8
	c-0.6,0.9-1.1,1.6-1.5,2.2c-0.4,0.6-0.8,1.1-1.2,1.5l-0.6,0.7c-0.2,0.2-0.4,0.3-0.7,0.3c-0.3-0.1-0.5-0.2-0.6-0.6
	c0-0.1,0-0.5-0.1-1.3s-0.2-1.6-0.3-2.5c-0.1-0.9-0.2-2-0.3-3.4s-0.1-2.8-0.1-4.1c0-1.3,0.1-2.8,0.3-4.4c0.2-1.6,0.4-3.1,0.7-4.4
	c0.7-2.9,2.9-12.4,6.8-28.7c-0.5-1-0.9-2.2-1.2-3.5c-0.3-1.4-0.5-2.5-0.5-3.3l-0.1-1.4c0-3.9,1-7.2,3-9.8c2-2.6,4.4-3.9,7.2-3.9
	c2.3,0,4,0.7,5.3,2.2c1.3,1.5,1.9,3.4,1.9,5.6c0,1.4-0.3,3.1-0.8,5.2s-1.2,4.4-2.1,7.1s-1.5,4.8-1.8,6.5c-0.6,2.8-0.1,5.1,1.6,7.2
	c1.7,2,3.9,3,6.7,3c4.8,0,8.8-2.7,12-8.2c3.1-5.5,4.7-12.1,4.7-19.9c0-5.9-1.9-10.8-5.8-14.5s-9.2-5.6-16.1-5.6
	c-7.7,0-14,2.5-18.8,7.4s-7.2,10.9-7.2,17.8c0,4.1,1.2,7.6,3.5,10.4c0.8,0.9,1,1.9,0.7,2.9c-0.1,0.3-0.3,1-0.6,2.1
	c-0.2,1.1-0.4,1.8-0.6,2.1c-0.1,0.7-0.4,1.1-0.9,1.3s-1,0.2-1.7,0c-3.6-1.5-6.3-4-8.1-7.6C25.5,58.8,24.6,54.6,24.6,49.9z"/>
</svg>
