<?xml version="1.0" encoding="utf-8"?>
<!-- Generator: Adobe Illustrator 19.1.0, SVG Export Plug-In . SVG Version: 6.00 Build 0)  -->
<svg version="1.1" id="Layer_1" xmlns="http://www.w3.org/2000/svg" xmlns:xlink="http://www.w3.org/1999/xlink" x="0px" y="0px"
	 viewBox="0 0 120 120" style="enable-background:new 0 0 120 120;" xml:space="preserve">
<style type="text/css">
	.st0{fill:#9C72B2;}
	.st1{fill:none;}
	.st2{fill:#FFFFFF;}
</style>
<circle class="st0" cx="60" cy="60" r="60"/>
<line class="st1" x1="-16" y1="4" x2="-17" y2="4"/>
<path class="st2" d="M60.1,21.6c-7.1,0-13.1,3.1-18.2,9.3c-5,6.1-7.5,13.5-7.5,22.3c0,8.7,2.5,16.1,7.5,22.2L60.1,98l18.3-22.6
	c4.9-6,7.4-13.4,7.4-22.2c0-8.9-2.5-16.3-7.4-22.3C73.4,24.7,67.3,21.6,60.1,21.6z M60.1,11.9c9.5,0,17.6,4,24.3,12.1
	s10,17.9,10,29.3s-3.3,21.2-10,29.3L60.1,112L36,82.7c-6.7-8.1-10.1-17.9-10.1-29.3S29.3,32.1,36,24.1S50.7,11.9,60.1,11.9z
	 M60.1,38.7c-2.9,0-5.4,1-7.5,2.9c-2.1,1.9-3.2,4.2-3.2,6.9s1.1,5,3.2,6.9c2.1,1.9,4.6,2.8,7.5,2.8c3,0,5.6-0.9,7.6-2.8
	c2.1-1.9,3.2-4.2,3.2-6.9s-1.1-5-3.2-6.9C65.6,39.7,63.1,38.7,60.1,38.7z M60.1,33.8c4.1,0,7.6,1.4,10.6,4.3
	c2.9,2.9,4.4,6.3,4.4,10.3s-1.5,7.4-4.4,10.3c-2.9,2.9-6.5,4.3-10.6,4.3s-7.6-1.4-10.6-4.3s-4.4-6.3-4.4-10.3s1.5-7.4,4.4-10.3
	S56,33.8,60.1,33.8z"/>
</svg>
