<?xml version="1.0" encoding="utf-8"?>
<!-- Generator: Adobe Illustrator 19.1.0, SVG Export Plug-In . SVG Version: 6.00 Build 0)  -->
<svg version="1.1" id="Layer_1" xmlns="http://www.w3.org/2000/svg" xmlns:xlink="http://www.w3.org/1999/xlink" x="0px" y="0px"
	 viewBox="0 0 120 120" style="enable-background:new 0 0 120 120;" xml:space="preserve">
<style type="text/css">
	.st0{fill:#9C72B2;}
	.st1{fill:none;stroke:#FFFFFF;stroke-width:5;stroke-miterlimit:10;}
	.st2{fill:none;}
	.st3{fill:none;stroke:#FFFFFF;stroke-width:2;stroke-miterlimit:10;}
	.st4{fill:#FFFFFF;}
</style>
<circle class="st0" cx="60" cy="60" r="60"/>
<path class="st1" d="M88,100H31c-6.6,0-12-5.4-12-12V31c0-6.6,5.4-12,12-12h57c6.6,0,12,5.4,12,12v57C100,94.6,94.6,100,88,100z"/>
<circle class="st1" cx="59.5" cy="60" r="17.5"/>
<line class="st1" x1="47" y1="49.5" x2="19" y2="49.5"/>
<line class="st1" x1="100" y1="49.5" x2="74" y2="49.5"/>
<line class="st2" x1="-16" y1="4" x2="-17" y2="4"/>
<line class="st3" x1="25" y1="19" x2="25" y2="36"/>
<line class="st3" x1="29" y1="19" x2="29" y2="36"/>
<line class="st3" x1="33" y1="19" x2="33" y2="36"/>
<path class="st4" d="M83.3,40.9h4c2.6,0,4.7-2.1,4.7-4.7v-4c0-2.6-2.1-4.7-4.7-4.7h-4c-2.6,0-4.7,2.1-4.7,4.7v4
	C78.6,38.8,80.7,40.9,83.3,40.9z"/>
</svg>
