<?xml version="1.0" encoding="utf-8"?>
<!-- Generator: Adobe Illustrator 19.1.0, SVG Export Plug-In . SVG Version: 6.00 Build 0)  -->
<svg version="1.1" id="Layer_1" xmlns="http://www.w3.org/2000/svg" xmlns:xlink="http://www.w3.org/1999/xlink" x="0px" y="0px"
	 viewBox="0 0 120 120" style="enable-background:new 0 0 120 120;" xml:space="preserve">
<style type="text/css">
	.st0{fill:#9C72B2;}
	.st1{fill:#FFFFFF;}
</style>
<circle class="st0" cx="60" cy="60" r="60"/>
<g>
	<path class="st1" d="M58.4,26.1c2.3,1.9,7.2,5.9,7.2,13.4c0,7.4-4.2,10.8-8.5,14.1c-1.3,1.3-2.8,2.7-2.8,4.9s1.5,3.4,2.6,4.3
		l3.7,2.8C65,69.2,69,72.6,69,79.5c0,9.4-9.2,18.8-26.6,18.8c-14.7,0-21.8-6.8-21.8-14.2c0-3.6,1.8-8.6,7.8-12.1
		c6.3-3.8,14.8-4.3,19.3-4.6c-1.4-1.8-3-3.7-3-6.8c0-1.7,0.5-2.7,1-3.9c-1.1,0.1-2.2,0.2-3.2,0.2c-10.7,0-16.8-7.9-16.8-15.6
		c0-4.6,2.1-9.7,6.5-13.3c5.8-4.7,12.7-5.4,18.1-5.4h20.9l-6.5,3.6H58.4z M51.2,70.2c-0.8-0.1-1.3-0.1-2.3-0.1
		c-0.9,0-6.4,0.2-10.6,1.6c-2.2,0.8-8.7,3.2-8.7,10.2s7,12.1,17.8,12.1c9.7,0,14.9-4.6,14.9-10.7C62.2,78.3,58.9,75.6,51.2,70.2
		 M54.1,51.3c2.3-2.3,2.5-5.5,2.5-7.3c0-7.2-4.4-18.3-12.8-18.3c-2.6,0-5.5,1.3-7.1,3.3c-1.7,2.1-2.2,4.8-2.2,7.4
		c0,6.7,3.9,17.7,12.7,17.7C49.8,54.1,52.5,52.9,54.1,51.3"/>
	<polygon class="st1" points="109,38 93.5,38 93.5,22.5 90.1,22.5 90.1,38 74.3,38 74.3,41.5 90.1,41.5 90.1,57.4 93.5,57.4 
		93.5,41.5 109,41.5 	"/>
</g>
</svg>
