<?xml version="1.0" encoding="utf-8"?>
<!-- Generator: Adobe Illustrator 19.1.0, SVG Export Plug-In . SVG Version: 6.00 Build 0)  -->
<svg version="1.1" id="Layer_1" xmlns="http://www.w3.org/2000/svg" xmlns:xlink="http://www.w3.org/1999/xlink" x="0px" y="0px"
	 viewBox="0 0 120 120" style="enable-background:new 0 0 120 120;" xml:space="preserve">
<style type="text/css">
	.st0{fill:#9C72B2;}
	.st1{fill:none;}
	.st2{fill:#FFFFFF;}
</style>
<circle class="st0" cx="60" cy="60" r="60"/>
<line class="st1" x1="-16" y1="4" x2="-17" y2="4"/>
<path class="st2" d="M47.2,59.5c-2.9-4.2-4.6-9.2-4.9-9.6C46.4,47,54.7,43.3,55.1,38c0.6-6.8-11-21.1-13.2-21.2
	c-6.1,0.1-17.2,10.3-18.5,13.4c-2.4,6.4-1.2,12.4,3,21C31.8,64.1,51.7,88.5,63,96.2c7.5,5.8,13,8,19.6,6.7
	c3.1-0.6,14.1-9.6,15.2-15.7c0.3-2.3-12.6-17.3-19.2-17.9c-5.1-0.5-10.1,7.2-13.6,11c-0.4-0.4-3.4-2.8-6.6-6.5
	C54.2,69.2,50.3,64,47.2,59.5z"/>
</svg>
